# xmcd
#
# Track frame offsets:
#  150
#  26282
#  48382
#  58878
#  89520
#  116732
#  145349
#  174422
#  199647
#  241695
#  266724
#
# Disc length: 3750 seconds
#
# Revision: 0
# Processed by: cddbd v1.5.1PL2 Copyright (c) Steve Scherf et al.
# Submitted via: Collectorz.com_Music_Collector 6.11
#
DISCID=970ea40b
DTITLE=Lyle Lovett and His Small Band - West End Cultural Center, Winnipeg, Manitoba, Canada 23 Oct 1997 [CD1)
DYEAR=1997
DGENRE=Alt Country
TTITLE0=Which Way Does That Old Pony Run
TTITLE1=Good Intentions
TTITLE2=God Will
TTITLE3=Give Back My Heart
TTITLE4=Sleepwalking
TTITLE5=Fiona
TTITLE6=Fat Babies
TTITLE7=If I Were The Man You Wanted
TTITLE8=Her First Mistake
TTITLE9=This Old Porch
TTITLE10=Nobody Knows Me
EXTD=
EXTT0=
EXTT1=
EXTT2=
EXTT3=
EXTT4=
EXTT5=
EXTT6=
EXTT7=
EXTT8=
EXTT9=
EXTT10=
PLAYORDER=
